<?xml version="1.0" standalone="no"?>
<!DOCTYPE svg PUBLIC "-//W3C//DTD SVG 20010904//EN"
 "http://www.w3.org/TR/2001/REC-SVG-20010904/DTD/svg10.dtd">
<svg version="1.0" xmlns="http://www.w3.org/2000/svg"
 width="16680.000000pt" height="21540.000000pt" viewBox="0 0 1668.000000 2154.000000"
 preserveAspectRatio="xMidYMid meet">

<g transform="translate(0.000000,2154.000000) scale(0.100000,-0.100000)"
fill="#000000" stroke="none">
<path d="M7238 15530 c-372 -3 -680 -8 -683 -12 -4 -4 -5 -13 -2 -21 4 -10 31
-16 93 -20 136 -8 124 50 124 -598 l0 -548 -22 -16 c-46 -31 -202 -192 -262
-270 -344 -442 -443 -1031 -260 -1556 148 -428 450 -764 859 -960 236 -113
474 -163 746 -157 184 4 171 13 171 -111 0 -208 -97 -331 -284 -361 -66 -10
-168 -2 -236 19 -138 42 -244 181 -292 381 -11 47 -24 98 -28 114 -4 16 -15
34 -24 40 -35 21 -40 -4 -38 -190 0 -98 -5 -231 -11 -296 -10 -93 -10 -121 -1
-130 19 -19 45 3 57 48 20 77 32 80 160 29 156 -61 244 -78 370 -72 83 4 127
11 177 30 232 85 384 269 406 492 l7 66 100 38 c268 102 493 255 673 459 l68
78 17 -39 c31 -73 44 -53 132 208 45 132 119 346 165 475 45 129 147 423 225
653 79 230 155 442 169 470 31 65 66 86 151 94 68 6 103 22 91 41 -10 17 -552
17 -562 0 -12 -19 27 -38 80 -38 110 -1 161 -28 150 -79 -9 -43 -258 -781
-261 -777 -2 2 -8 58 -13 124 -17 226 -69 421 -164 614 -60 123 -63 118 64
118 41 0 81 4 89 9 22 14 5 41 -26 42 -62 1 -169 -2 -188 -7 -17 -4 -32 11
-80 78 -75 105 -226 262 -330 343 -297 229 -635 346 -1009 349 l-158 1 7 147
c7 159 4 188 -25 188 -21 0 -26 -12 -35 -85 -10 -74 -34 -164 -55 -206 -34
-66 -124 -89 -352 -89 l-138 0 0 410 0 410 218 0 c214 0 354 -10 439 -31 92
-24 172 -132 209 -284 21 -85 40 -125 60 -125 29 0 29 8 -12 458 -5 56 -8 62
-27 60 -12 -2 -327 -5 -699 -8z m892 -963 c58 -14 134 -35 170 -47 89 -29 270
-117 356 -172 149 -96 321 -260 416 -396 l29 -42 -328 5 c-180 3 -377 7 -438
10 -125 5 -155 0 -155 -25 0 -20 27 -30 88 -30 54 0 104 -21 123 -51 16 -24
299 -752 299 -766 -1 -23 -278 -694 -283 -686 -6 10 -111 291 -229 613 -115
316 -198 552 -198 566 0 10 8 12 30 8 l30 -6 1 108 c0 60 4 132 7 159 6 44 10
50 32 53 55 6 70 13 70 32 0 16 -8 19 -47 22 l-48 3 -3 72 c-5 122 -46 119
-66 -5 l-11 -67 -306 -1 c-168 0 -311 -4 -317 -8 -37 -23 1 -40 119 -54 69 -9
87 -15 105 -35 24 -28 80 -174 71 -184 -4 -3 -140 -8 -302 -11 l-295 -5 0 395
0 395 98 46 c118 55 265 101 298 93 37 -10 90 -62 108 -107 9 -23 24 -88 33
-146 16 -105 31 -137 58 -127 13 5 14 37 8 216 l-6 211 189 -6 c153 -4 209
-10 294 -30z m-941 9 c-2 -2 -34 -18 -71 -34 l-68 -31 0 35 0 34 72 0 c39 0
69 -2 67 -4z m-429 -910 c-12 -33 -36 -42 -132 -51 -75 -7 -104 -23 -75 -42 7
-4 190 -6 407 -4 218 2 470 0 562 -4 l166 -7 142 -385 c78 -211 140 -386 137
-389 -3 -3 -37 6 -75 20 -221 79 -385 67 -544 -40 -144 -98 -223 -256 -221
-444 3 -232 100 -361 388 -518 274 -149 350 -202 413 -291 l33 -46 -23 -7
c-68 -19 -317 -5 -474 28 -413 84 -801 362 -1020 730 -161 269 -233 553 -221
873 11 297 91 549 254 801 64 99 176 233 242 291 l46 41 3 -265 c1 -159 -2
-275 -8 -291z m1179 134 c-23 -54 -33 -55 -44 -2 -6 30 -4 33 27 46 18 8 34
13 36 11 2 -2 -7 -26 -19 -55z m1066 46 c23 -10 35 -22 35 -34 0 -18 -155
-416 -177 -456 -8 -14 -27 33 -91 219 -45 130 -82 243 -82 250 0 23 51 33 168
34 77 1 124 -4 147 -13z m199 -114 c57 -113 110 -266 138 -396 18 -85 22 -133
22 -306 0 -225 -14 -321 -75 -503 -54 -163 -32 -190 -222 282 -92 230 -167
424 -167 431 0 15 143 363 203 493 22 48 44 87 48 87 5 0 29 -40 53 -88z
m-326 -1132 c71 -179 144 -365 162 -413 l32 -88 -40 -52 c-99 -128 -293 -295
-447 -384 -93 -55 -295 -143 -326 -143 -5 0 -12 12 -15 28 -14 59 -78 163
-137 222 -78 78 -182 147 -372 247 -253 134 -310 182 -356 302 -25 65 -30 200
-11 268 17 58 70 133 117 164 84 57 215 63 320 15 109 -50 226 -197 250 -316
4 -19 13 -50 21 -69 11 -27 18 -32 36 -28 21 5 27 -4 77 -136 110 -292 124
-317 150 -269 6 10 55 136 110 279 55 143 139 356 186 474 48 118 90 220 92
227 3 7 9 10 13 5 5 -4 66 -154 138 -333z"/>
</g>
</svg>
